# xmcd CD database file
# Copyright (C) 1997 Ti Kan
# 
# Track frame offsets:
#     187
#     15400
#     36290
#     51222
#     71907
#     86015
#     104957
#     118315
#     130755
#     149970
# 
# Disc length: 2247 seconds
# 
# Revision: 1
# Processed by: cddbd v1.4b41PL1 Copyright (c) Steve Scherf et al.
# Submitted via: DiscPlay 4.0.4
# 
DISCID=9f08c50a
DTITLE=Prairie Oyster - Different Kind Of Fire
DYEAR=1900
DGENRE=
TTITLE0=Wild About Me
TTITLE1=Something To Remember You By
TTITLE2=Lonely You, Lonely Me
TTITLE3=Meet Me On The Corner
TTITLE4=Goodbye, So Long, Hello
TTITLE5=But You Said
TTITLE6=I Don't Hurt Anymore
TTITLE7=You Changed Your Mind
TTITLE8=Different Kind Of Fire
TTITLE9=If I Could Take My Own Advice
EXTD=
EXTT0=
EXTT1=
EXTT2=
EXTT3=
EXTT4=
EXTT5=
EXTT6=
EXTT7=
EXTT8=
EXTT9=
PLAYORDER=
